# xmcd
#
# Track frame offsets:
#	150
#	16140
#	40982
#	60235
#	76172
#	94590
#	116685
#	134515
#	152202
#	167667
#
# Disc length: 2439 seconds
#
# Revision: 1
# Processed by: cddbd v1.5.2PL0 Copyright (c) Steve Scherf et al.
# Submitted via: audiograbber 1.83.01
#
DISCID=7209850a
DTITLE=Sam Ford - Unhinged
DYEAR=1993
DGENRE=Country
TTITLE0=Still just a fool
TTITLE1=The homecoming
TTITLE2=Jack
TTITLE3=Bad moments
TTITLE4=I'm losing you
TTITLE5=Only a dream
TTITLE6=Heart of stone
TTITLE7=Like Torvill and Dean
TTITLE8=Saward's song
TTITLE9=Down the trail of aching hearts
EXTD=Jayrem Music
EXTT0=
EXTT1=
EXTT2=
EXTT3=
EXTT4=
EXTT5=
EXTT6=
EXTT7=
EXTT8=
EXTT9=
PLAYORDER=
